<mxfile host="65bd71144e">
    <diagram id="nWvufZdXXV8VyE-WNwWb" name="ER Diagram">
        <mxGraphModel dx="1970" dy="821" grid="1" gridSize="10" guides="1" tooltips="1" connect="1" arrows="1" fold="1" page="1" pageScale="1" pageWidth="300" pageHeight="300" math="0" shadow="0">
            <root>
                <mxCell id="0"/>
                <mxCell id="1" parent="0"/>
                <mxCell id="120" style="edgeStyle=none;html=1;exitX=1;exitY=1;exitDx=0;exitDy=0;endArrow=none;endFill=0;shape=link;entryX=1;entryY=0.75;entryDx=0;entryDy=0;" parent="1" source="118" target="110" edge="1">
                    <mxGeometry relative="1" as="geometry">
                        <mxPoint x="320" y="190" as="targetPoint"/>
                    </mxGeometry>
                </mxCell>
                <mxCell id="166" value="ID" style="ellipse;whiteSpace=wrap;html=1;" parent="1" vertex="1">
                    <mxGeometry x="-25" y="539" width="80" height="30" as="geometry"/>
                </mxCell>
                <mxCell id="43" style="edgeStyle=none;html=1;exitX=1;exitY=0;exitDx=0;exitDy=0;entryX=0;entryY=0.5;entryDx=0;entryDy=0;endArrow=none;endFill=0;" parent="1" source="2" target="42" edge="1">
                    <mxGeometry relative="1" as="geometry"/>
                </mxCell>
                <mxCell id="119" style="edgeStyle=none;html=1;exitX=1;exitY=0.5;exitDx=0;exitDy=0;entryX=0;entryY=0.5;entryDx=0;entryDy=0;endArrow=none;endFill=0;" parent="1" source="2" target="263" edge="1">
                    <mxGeometry relative="1" as="geometry"/>
                </mxCell>
                <mxCell id="217" style="edgeStyle=none;html=1;exitX=1;exitY=0.5;exitDx=0;exitDy=0;entryX=0;entryY=0.5;entryDx=0;entryDy=0;endArrow=none;endFill=0;" parent="1" source="2" target="118" edge="1">
                    <mxGeometry relative="1" as="geometry"/>
                </mxCell>
                <mxCell id="275" style="edgeStyle=none;html=1;exitX=0.5;exitY=0;exitDx=0;exitDy=0;entryX=0;entryY=0.5;entryDx=0;entryDy=0;endArrow=none;endFill=0;" parent="1" source="2" target="274" edge="1">
                    <mxGeometry relative="1" as="geometry"/>
                </mxCell>
                <mxCell id="2" value="Player" style="rounded=0;whiteSpace=wrap;html=1;" parent="1" vertex="1">
                    <mxGeometry x="-13" y="147" width="80" height="30" as="geometry"/>
                </mxCell>
                <mxCell id="128" style="edgeStyle=none;html=1;exitX=1;exitY=1;exitDx=0;exitDy=0;endArrow=none;endFill=0;startArrow=none;entryX=0.5;entryY=0;entryDx=0;entryDy=0;shape=link;" parent="1" source="155" target="154" edge="1">
                    <mxGeometry relative="1" as="geometry">
                        <mxPoint x="-13" y="480" as="targetPoint"/>
                        <mxPoint x="-80" y="360" as="sourcePoint"/>
                    </mxGeometry>
                </mxCell>
                <mxCell id="144" style="edgeStyle=none;html=1;exitX=0.5;exitY=1;exitDx=0;exitDy=0;endArrow=none;endFill=0;entryX=0.113;entryY=0.412;entryDx=0;entryDy=0;entryPerimeter=0;" parent="1" source="2" target="145" edge="1">
                    <mxGeometry relative="1" as="geometry">
                        <mxPoint x="230" y="300" as="targetPoint"/>
                        <mxPoint x="40" y="254" as="sourcePoint"/>
                    </mxGeometry>
                </mxCell>
                <mxCell id="99" style="edgeStyle=none;html=1;exitX=0.5;exitY=0;exitDx=0;exitDy=0;entryX=0.5;entryY=1;entryDx=0;entryDy=0;endArrow=none;endFill=0;" parent="1" target="98" edge="1">
                    <mxGeometry relative="1" as="geometry">
                        <mxPoint x="470" y="60" as="sourcePoint"/>
                    </mxGeometry>
                </mxCell>
                <mxCell id="101" style="edgeStyle=none;html=1;exitX=0.5;exitY=0;exitDx=0;exitDy=0;entryX=0;entryY=1;entryDx=0;entryDy=0;endArrow=none;endFill=0;" parent="1" target="100" edge="1">
                    <mxGeometry relative="1" as="geometry">
                        <mxPoint x="470" y="60" as="sourcePoint"/>
                    </mxGeometry>
                </mxCell>
                <mxCell id="109" style="edgeStyle=none;html=1;exitX=0.5;exitY=0;exitDx=0;exitDy=0;entryX=0;entryY=1;entryDx=0;entryDy=0;endArrow=none;endFill=0;" parent="1" target="108" edge="1">
                    <mxGeometry relative="1" as="geometry">
                        <mxPoint x="470" y="60" as="sourcePoint"/>
                    </mxGeometry>
                </mxCell>
                <mxCell id="113" style="edgeStyle=none;html=1;exitX=0.5;exitY=1;exitDx=0;exitDy=0;entryX=1;entryY=0;entryDx=0;entryDy=0;endArrow=none;endFill=0;" parent="1" target="112" edge="1">
                    <mxGeometry relative="1" as="geometry">
                        <mxPoint x="470" y="90" as="sourcePoint"/>
                    </mxGeometry>
                </mxCell>
                <mxCell id="38" style="edgeStyle=none;html=1;exitX=0.5;exitY=0;exitDx=0;exitDy=0;entryX=1;entryY=1;entryDx=0;entryDy=0;endArrow=none;endFill=0;" parent="1" target="40" edge="1">
                    <mxGeometry relative="1" as="geometry">
                        <mxPoint x="470" y="60" as="sourcePoint"/>
                    </mxGeometry>
                </mxCell>
                <mxCell id="39" style="edgeStyle=none;html=1;entryX=0.5;entryY=1;entryDx=0;entryDy=0;endArrow=none;endFill=0;exitX=0.5;exitY=0;exitDx=0;exitDy=0;" parent="1" target="41" edge="1">
                    <mxGeometry relative="1" as="geometry">
                        <mxPoint x="470" y="60" as="sourcePoint"/>
                    </mxGeometry>
                </mxCell>
                <mxCell id="40" value="ID" style="ellipse;whiteSpace=wrap;html=1;fontStyle=4" parent="1" vertex="1">
                    <mxGeometry x="365" y="-10" width="80" height="30" as="geometry"/>
                </mxCell>
                <mxCell id="41" value="is_public" style="ellipse;whiteSpace=wrap;html=1;" parent="1" vertex="1">
                    <mxGeometry x="450" y="-70" width="80" height="30" as="geometry"/>
                </mxCell>
                <mxCell id="44" style="edgeStyle=none;html=1;exitX=1;exitY=0.5;exitDx=0;exitDy=0;entryX=0;entryY=0.5;entryDx=0;entryDy=0;endArrow=none;endFill=0;" parent="1" source="42" edge="1">
                    <mxGeometry relative="1" as="geometry">
                        <mxPoint x="430" y="75" as="targetPoint"/>
                    </mxGeometry>
                </mxCell>
                <mxCell id="91" style="edgeStyle=none;html=1;exitX=0.5;exitY=0;exitDx=0;exitDy=0;entryX=0.5;entryY=1;entryDx=0;entryDy=0;endArrow=none;endFill=0;" parent="1" source="42" target="90" edge="1">
                    <mxGeometry relative="1" as="geometry"/>
                </mxCell>
                <mxCell id="42" value="Participates" style="rhombus;whiteSpace=wrap;html=1;" parent="1" vertex="1">
                    <mxGeometry x="240" y="35" width="80" height="80" as="geometry"/>
                </mxCell>
                <mxCell id="78" style="edgeStyle=none;html=1;exitX=0.5;exitY=1;exitDx=0;exitDy=0;entryX=0.5;entryY=0;entryDx=0;entryDy=0;endArrow=none;endFill=0;" parent="1" source="49" target="76" edge="1">
                    <mxGeometry relative="1" as="geometry"/>
                </mxCell>
                <mxCell id="84" style="edgeStyle=none;html=1;exitX=1;exitY=0;exitDx=0;exitDy=0;entryX=0;entryY=1;entryDx=0;entryDy=0;endArrow=none;endFill=0;" parent="1" source="49" target="171" edge="1">
                    <mxGeometry relative="1" as="geometry">
                        <mxPoint x="484" y="183" as="targetPoint"/>
                    </mxGeometry>
                </mxCell>
                <mxCell id="49" value="Team" style="rounded=0;whiteSpace=wrap;html=1;" parent="1" vertex="1">
                    <mxGeometry x="342" y="389" width="80" height="30" as="geometry"/>
                </mxCell>
                <mxCell id="267" style="edgeStyle=none;html=1;exitX=0;exitY=0.5;exitDx=0;exitDy=0;entryX=1;entryY=0;entryDx=0;entryDy=0;endArrow=none;endFill=0;" parent="1" source="71" target="145" edge="1">
                    <mxGeometry relative="1" as="geometry"/>
                </mxCell>
                <mxCell id="71" value="start_mod&lt;br&gt;_date" style="ellipse;whiteSpace=wrap;html=1;fillColor=#FFFF99;" parent="1" vertex="1">
                    <mxGeometry x="261" y="350" width="80" height="30" as="geometry"/>
                </mxCell>
                <mxCell id="76" value="&lt;u&gt;name&lt;/u&gt;" style="ellipse;whiteSpace=wrap;html=1;" parent="1" vertex="1">
                    <mxGeometry x="275" y="439" width="80" height="30" as="geometry"/>
                </mxCell>
                <mxCell id="79" style="edgeStyle=none;html=1;exitX=0.5;exitY=0;exitDx=0;exitDy=0;endArrow=none;endFill=0;" parent="1" source="77" edge="1">
                    <mxGeometry relative="1" as="geometry">
                        <mxPoint x="382" y="419.0000000000001" as="targetPoint"/>
                    </mxGeometry>
                </mxCell>
                <mxCell id="77" value="creation date" style="ellipse;whiteSpace=wrap;html=1;" parent="1" vertex="1">
                    <mxGeometry x="441" y="432" width="80" height="30" as="geometry"/>
                </mxCell>
                <mxCell id="80" value="N" style="text;html=1;strokeColor=none;fillColor=none;align=center;verticalAlign=middle;whiteSpace=wrap;rounded=0;" parent="1" vertex="1">
                    <mxGeometry x="205" y="50" width="60" height="30" as="geometry"/>
                </mxCell>
                <mxCell id="81" value="M" style="text;html=1;strokeColor=none;fillColor=none;align=center;verticalAlign=middle;whiteSpace=wrap;rounded=0;" parent="1" vertex="1">
                    <mxGeometry x="300" y="50" width="60" height="30" as="geometry"/>
                </mxCell>
                <mxCell id="85" value="1" style="text;html=1;strokeColor=none;fillColor=none;align=center;verticalAlign=middle;whiteSpace=wrap;rounded=0;" parent="1" vertex="1">
                    <mxGeometry x="521" y="235" width="60" height="30" as="geometry"/>
                </mxCell>
                <mxCell id="87" value="N" style="text;html=1;strokeColor=none;fillColor=none;align=center;verticalAlign=middle;whiteSpace=wrap;rounded=0;" parent="1" vertex="1">
                    <mxGeometry x="521" y="155" width="60" height="30" as="geometry"/>
                </mxCell>
                <mxCell id="90" value="results" style="ellipse;whiteSpace=wrap;html=1;" parent="1" vertex="1">
                    <mxGeometry x="239" y="-10" width="80" height="30" as="geometry"/>
                </mxCell>
                <mxCell id="95" style="edgeStyle=none;html=1;exitX=1;exitY=1;exitDx=0;exitDy=0;entryX=0.5;entryY=0;entryDx=0;entryDy=0;endArrow=none;endFill=0;" parent="1" source="92" target="90" edge="1">
                    <mxGeometry relative="1" as="geometry"/>
                </mxCell>
                <mxCell id="92" value="ranking" style="ellipse;whiteSpace=wrap;html=1;" parent="1" vertex="1">
                    <mxGeometry x="170" y="-40" width="80" height="30" as="geometry"/>
                </mxCell>
                <mxCell id="96" style="edgeStyle=none;html=1;exitX=0.5;exitY=1;exitDx=0;exitDy=0;endArrow=none;endFill=0;entryX=0.5;entryY=0;entryDx=0;entryDy=0;" parent="1" source="93" target="90" edge="1">
                    <mxGeometry relative="1" as="geometry">
                        <mxPoint x="260" y="-10" as="targetPoint"/>
                    </mxGeometry>
                </mxCell>
                <mxCell id="93" value="score" style="ellipse;whiteSpace=wrap;html=1;" parent="1" vertex="1">
                    <mxGeometry x="235" y="-62" width="80" height="30" as="geometry"/>
                </mxCell>
                <mxCell id="97" style="edgeStyle=none;html=1;exitX=0;exitY=1;exitDx=0;exitDy=0;endArrow=none;endFill=0;entryX=0.5;entryY=0;entryDx=0;entryDy=0;" parent="1" source="94" target="90" edge="1">
                    <mxGeometry relative="1" as="geometry">
                        <mxPoint x="280" y="-14.347826086956502" as="targetPoint"/>
                    </mxGeometry>
                </mxCell>
                <mxCell id="94" value="performace" style="ellipse;whiteSpace=wrap;html=1;" parent="1" vertex="1">
                    <mxGeometry x="300" y="-40" width="80" height="30" as="geometry"/>
                </mxCell>
                <mxCell id="98" value="is_rated" style="ellipse;whiteSpace=wrap;html=1;" parent="1" vertex="1">
                    <mxGeometry x="403" y="-40" width="80" height="30" as="geometry"/>
                </mxCell>
                <mxCell id="104" style="edgeStyle=none;html=1;exitX=1;exitY=0.5;exitDx=0;exitDy=0;entryX=0;entryY=1;entryDx=0;entryDy=0;endArrow=none;endFill=0;" parent="1" source="100" target="102" edge="1">
                    <mxGeometry relative="1" as="geometry"/>
                </mxCell>
                <mxCell id="105" style="edgeStyle=none;html=1;exitX=1;exitY=0.5;exitDx=0;exitDy=0;entryX=0;entryY=0;entryDx=0;entryDy=0;endArrow=none;endFill=0;" parent="1" source="100" target="103" edge="1">
                    <mxGeometry relative="1" as="geometry"/>
                </mxCell>
                <mxCell id="100" value="time_control" style="ellipse;whiteSpace=wrap;html=1;" parent="1" vertex="1">
                    <mxGeometry x="510" y="20" width="80" height="30" as="geometry"/>
                </mxCell>
                <mxCell id="102" value="initial_limit" style="ellipse;whiteSpace=wrap;html=1;" parent="1" vertex="1">
                    <mxGeometry x="590" y="5" width="80" height="30" as="geometry"/>
                </mxCell>
                <mxCell id="103" value="increment" style="ellipse;whiteSpace=wrap;html=1;" parent="1" vertex="1">
                    <mxGeometry x="591" y="40" width="80" height="30" as="geometry"/>
                </mxCell>
                <mxCell id="107" style="edgeStyle=none;html=1;exitX=0;exitY=1;exitDx=0;exitDy=0;entryX=0.5;entryY=0;entryDx=0;entryDy=0;endArrow=none;endFill=0;" parent="1" source="106" edge="1">
                    <mxGeometry relative="1" as="geometry">
                        <mxPoint x="470" y="60" as="targetPoint"/>
                    </mxGeometry>
                </mxCell>
                <mxCell id="106" value="start_datetime" style="ellipse;whiteSpace=wrap;html=1;" parent="1" vertex="1">
                    <mxGeometry x="509" y="-47.5" width="80" height="30" as="geometry"/>
                </mxCell>
                <mxCell id="108" value="end_datetime" style="ellipse;whiteSpace=wrap;html=1;" parent="1" vertex="1">
                    <mxGeometry x="511" y="-14" width="80" height="30" as="geometry"/>
                </mxCell>
                <mxCell id="152" style="edgeStyle=none;html=1;exitX=0.5;exitY=1;exitDx=0;exitDy=0;entryX=0.5;entryY=0;entryDx=0;entryDy=0;endArrow=none;endFill=0;" parent="1" source="110" target="151" edge="1">
                    <mxGeometry relative="1" as="geometry"/>
                </mxCell>
                <mxCell id="185" style="edgeStyle=none;html=1;exitX=0.5;exitY=1;exitDx=0;exitDy=0;entryX=0;entryY=0.5;entryDx=0;entryDy=0;endArrow=none;endFill=0;" parent="1" source="110" target="182" edge="1">
                    <mxGeometry relative="1" as="geometry"/>
                </mxCell>
                <mxCell id="200" style="edgeStyle=none;html=1;exitX=0.5;exitY=1;exitDx=0;exitDy=0;entryX=0;entryY=0;entryDx=0;entryDy=0;endArrow=none;endFill=0;" parent="1" source="110" target="199" edge="1">
                    <mxGeometry relative="1" as="geometry"/>
                </mxCell>
                <mxCell id="249" style="edgeStyle=none;html=1;exitX=0.5;exitY=1;exitDx=0;exitDy=0;entryX=1;entryY=0;entryDx=0;entryDy=0;fontSize=12;endArrow=none;endFill=0;" parent="1" source="110" target="247" edge="1">
                    <mxGeometry relative="1" as="geometry"/>
                </mxCell>
                <mxCell id="110" value="Game" style="rounded=0;whiteSpace=wrap;html=1;" parent="1" vertex="1">
                    <mxGeometry x="251" y="186" width="80" height="30" as="geometry"/>
                </mxCell>
                <mxCell id="114" style="edgeStyle=none;html=1;exitX=0;exitY=1;exitDx=0;exitDy=0;entryX=0.5;entryY=0;entryDx=0;entryDy=0;endArrow=none;endFill=0;" parent="1" source="112" target="110" edge="1">
                    <mxGeometry relative="1" as="geometry"/>
                </mxCell>
                <mxCell id="112" value="Part_of" style="rhombus;whiteSpace=wrap;html=1;" parent="1" vertex="1">
                    <mxGeometry x="350" y="103" width="80" height="80" as="geometry"/>
                </mxCell>
                <mxCell id="115" value="1" style="text;html=1;strokeColor=none;fillColor=none;align=center;verticalAlign=middle;whiteSpace=wrap;rounded=0;" parent="1" vertex="1">
                    <mxGeometry x="403" y="108" width="60" height="30" as="geometry"/>
                </mxCell>
                <mxCell id="116" value="N" style="text;html=1;strokeColor=none;fillColor=none;align=center;verticalAlign=middle;whiteSpace=wrap;rounded=0;" parent="1" vertex="1">
                    <mxGeometry x="303" y="147" width="60" height="30" as="geometry"/>
                </mxCell>
                <mxCell id="118" value="White_Plays" style="rhombus;whiteSpace=wrap;html=1;fillColor=#FFFF99;" parent="1" vertex="1">
                    <mxGeometry x="86" y="152" width="80" height="80" as="geometry"/>
                </mxCell>
                <mxCell id="122" value="N" style="text;html=1;strokeColor=none;fillColor=none;align=center;verticalAlign=middle;whiteSpace=wrap;rounded=0;" parent="1" vertex="1">
                    <mxGeometry x="214" y="148" width="47" height="12" as="geometry"/>
                </mxCell>
                <mxCell id="141" style="edgeStyle=none;html=1;entryX=0.5;entryY=0;entryDx=0;entryDy=0;endArrow=none;endFill=0;exitX=0.5;exitY=1;exitDx=0;exitDy=0;" parent="1" source="2" target="138" edge="1">
                    <mxGeometry relative="1" as="geometry">
                        <mxPoint x="20" y="240" as="sourcePoint"/>
                    </mxGeometry>
                </mxCell>
                <mxCell id="136" value="" style="edgeStyle=none;html=1;exitX=0.5;exitY=1;exitDx=0;exitDy=0;endArrow=none;endFill=0;entryX=1;entryY=0;entryDx=0;entryDy=0;" parent="1" source="2" target="155" edge="1">
                    <mxGeometry relative="1" as="geometry">
                        <mxPoint x="-78.4946236559141" y="321.50537634408613" as="targetPoint"/>
                        <mxPoint x="40" y="254" as="sourcePoint"/>
                    </mxGeometry>
                </mxCell>
                <mxCell id="142" style="edgeStyle=none;html=1;exitX=0;exitY=1;exitDx=0;exitDy=0;entryX=0.5;entryY=0;entryDx=0;entryDy=0;endArrow=none;endFill=0;" parent="1" source="138" target="154" edge="1">
                    <mxGeometry relative="1" as="geometry">
                        <mxPoint x="-13" y="480" as="targetPoint"/>
                    </mxGeometry>
                </mxCell>
                <mxCell id="138" value="Approves" style="rhombus;whiteSpace=wrap;html=1;" parent="1" vertex="1">
                    <mxGeometry x="-13" y="370" width="80" height="80" as="geometry"/>
                </mxCell>
                <mxCell id="146" style="edgeStyle=none;html=1;exitX=1;exitY=1;exitDx=0;exitDy=0;entryX=0;entryY=0.5;entryDx=0;entryDy=0;endArrow=none;endFill=0;shape=link;" parent="1" source="145" target="49" edge="1">
                    <mxGeometry relative="1" as="geometry"/>
                </mxCell>
                <mxCell id="147" style="edgeStyle=none;html=1;exitX=0;exitY=0;exitDx=0;exitDy=0;endArrow=none;endFill=0;entryX=1;entryY=1;entryDx=0;entryDy=0;" parent="1" source="145" target="148" edge="1">
                    <mxGeometry relative="1" as="geometry">
                        <mxPoint x="290" y="290" as="targetPoint"/>
                    </mxGeometry>
                </mxCell>
                <mxCell id="145" value="Joins" style="rhombus;whiteSpace=wrap;html=1;fillColor=#FFFF99;" parent="1" vertex="1">
                    <mxGeometry x="159" y="325" width="80" height="80" as="geometry"/>
                </mxCell>
                <mxCell id="148" value="join_date" style="ellipse;whiteSpace=wrap;html=1;" parent="1" vertex="1">
                    <mxGeometry x="235" y="320" width="80" height="30" as="geometry"/>
                </mxCell>
                <mxCell id="151" value="pgn" style="ellipse;whiteSpace=wrap;html=1;" parent="1" vertex="1">
                    <mxGeometry x="239.5" y="285" width="80" height="30" as="geometry"/>
                </mxCell>
                <mxCell id="168" style="edgeStyle=none;html=1;exitX=0.5;exitY=1;exitDx=0;exitDy=0;entryX=0.5;entryY=0;entryDx=0;entryDy=0;strokeWidth=1;endArrow=none;endFill=0;" parent="1" source="154" target="166" edge="1">
                    <mxGeometry relative="1" as="geometry"/>
                </mxCell>
                <mxCell id="170" style="edgeStyle=none;html=1;exitX=0.5;exitY=1;exitDx=0;exitDy=0;entryX=0.5;entryY=0;entryDx=0;entryDy=0;strokeWidth=1;endArrow=none;endFill=0;" parent="1" source="154" target="169" edge="1">
                    <mxGeometry relative="1" as="geometry"/>
                </mxCell>
                <mxCell id="154" value="Application" style="shape=ext;margin=3;double=1;whiteSpace=wrap;html=1;align=center;" parent="1" vertex="1">
                    <mxGeometry x="-60" y="480" width="80" height="30" as="geometry"/>
                </mxCell>
                <mxCell id="155" value="Creates" style="shape=rhombus;double=1;perimeter=rhombusPerimeter;whiteSpace=wrap;html=1;align=center;" parent="1" vertex="1">
                    <mxGeometry x="-150" y="380" width="80" height="80" as="geometry"/>
                </mxCell>
                <mxCell id="161" style="edgeStyle=none;html=1;exitX=0;exitY=0.5;exitDx=0;exitDy=0;entryX=1;entryY=0.5;entryDx=0;entryDy=0;endArrow=none;endFill=0;shape=link;" parent="1" source="162" target="154" edge="1">
                    <mxGeometry relative="1" as="geometry">
                        <mxPoint x="95" y="470" as="sourcePoint"/>
                        <mxPoint x="68" y="520" as="targetPoint"/>
                    </mxGeometry>
                </mxCell>
                <mxCell id="163" style="edgeStyle=none;html=1;exitX=1;exitY=0;exitDx=0;exitDy=0;entryX=0;entryY=0.5;entryDx=0;entryDy=0;endArrow=none;endFill=0;" parent="1" source="162" target="49" edge="1">
                    <mxGeometry relative="1" as="geometry"/>
                </mxCell>
                <mxCell id="162" value="Apply_to" style="rhombus;whiteSpace=wrap;html=1;" parent="1" vertex="1">
                    <mxGeometry x="134" y="439" width="80" height="80" as="geometry"/>
                </mxCell>
                <mxCell id="165" value="" style="endArrow=none;dashed=1;html=1;strokeWidth=1;" parent="1" edge="1">
                    <mxGeometry width="50" height="50" relative="1" as="geometry">
                        <mxPoint x="7" y="561" as="sourcePoint"/>
                        <mxPoint x="22" y="561" as="targetPoint"/>
                    </mxGeometry>
                </mxCell>
                <mxCell id="169" value="Message" style="ellipse;whiteSpace=wrap;html=1;" parent="1" vertex="1">
                    <mxGeometry x="-110" y="539" width="80" height="30" as="geometry"/>
                </mxCell>
                <mxCell id="171" value="Hosts" style="rhombus;whiteSpace=wrap;html=1;strokeColor=default;" parent="1" vertex="1">
                    <mxGeometry x="530" y="170" width="80" height="80" as="geometry"/>
                </mxCell>
                <mxCell id="172" value="Tournament" style="rounded=0;whiteSpace=wrap;html=1;" parent="1" vertex="1">
                    <mxGeometry x="429" y="60" width="80" height="30" as="geometry"/>
                </mxCell>
                <mxCell id="174" value="N" style="text;html=1;strokeColor=none;fillColor=none;align=center;verticalAlign=middle;whiteSpace=wrap;rounded=0;" parent="1" vertex="1">
                    <mxGeometry x="-22" y="432" width="60" height="30" as="geometry"/>
                </mxCell>
                <mxCell id="175" value="1" style="text;html=1;strokeColor=none;fillColor=none;align=center;verticalAlign=middle;whiteSpace=wrap;rounded=0;" parent="1" vertex="1">
                    <mxGeometry x="6" y="350" width="60" height="30" as="geometry"/>
                </mxCell>
                <mxCell id="176" value="N" style="text;html=1;strokeColor=none;fillColor=none;align=center;verticalAlign=middle;whiteSpace=wrap;rounded=0;" parent="1" vertex="1">
                    <mxGeometry x="96" y="450" width="60" height="30" as="geometry"/>
                </mxCell>
                <mxCell id="177" value="1" style="text;html=1;strokeColor=none;fillColor=none;align=center;verticalAlign=middle;whiteSpace=wrap;rounded=0;" parent="1" vertex="1">
                    <mxGeometry x="166" y="430" width="60" height="30" as="geometry"/>
                </mxCell>
                <mxCell id="178" value="1" style="text;html=1;strokeColor=none;fillColor=none;align=center;verticalAlign=middle;whiteSpace=wrap;rounded=0;" parent="1" vertex="1">
                    <mxGeometry x="-120" y="370" width="60" height="30" as="geometry"/>
                </mxCell>
                <mxCell id="179" value="N" style="text;html=1;strokeColor=none;fillColor=none;align=center;verticalAlign=middle;whiteSpace=wrap;rounded=0;" parent="1" vertex="1">
                    <mxGeometry x="-100" y="420" width="60" height="30" as="geometry"/>
                </mxCell>
                <mxCell id="180" style="edgeStyle=none;html=1;exitX=1;exitY=0.5;exitDx=0;exitDy=0;entryX=0;entryY=1;entryDx=0;entryDy=0;endArrow=none;endFill=0;" parent="1" source="182" target="183" edge="1">
                    <mxGeometry relative="1" as="geometry"/>
                </mxCell>
                <mxCell id="181" style="edgeStyle=none;html=1;exitX=1;exitY=0.5;exitDx=0;exitDy=0;entryX=0;entryY=0;entryDx=0;entryDy=0;endArrow=none;endFill=0;" parent="1" source="182" target="184" edge="1">
                    <mxGeometry relative="1" as="geometry"/>
                </mxCell>
                <mxCell id="182" value="time_control" style="ellipse;whiteSpace=wrap;html=1;" parent="1" vertex="1">
                    <mxGeometry x="338" y="210" width="80" height="30" as="geometry"/>
                </mxCell>
                <mxCell id="183" value="initial_limit" style="ellipse;whiteSpace=wrap;html=1;" parent="1" vertex="1">
                    <mxGeometry x="418" y="195" width="80" height="30" as="geometry"/>
                </mxCell>
                <mxCell id="184" value="increment" style="ellipse;whiteSpace=wrap;html=1;" parent="1" vertex="1">
                    <mxGeometry x="419" y="230" width="80" height="30" as="geometry"/>
                </mxCell>
                <mxCell id="187" value="N" style="text;html=1;strokeColor=none;fillColor=none;align=center;verticalAlign=middle;whiteSpace=wrap;rounded=0;" parent="1" vertex="1">
                    <mxGeometry x="110" y="325" width="60" height="30" as="geometry"/>
                </mxCell>
                <mxCell id="188" value="1" style="text;html=1;strokeColor=none;fillColor=none;align=center;verticalAlign=middle;whiteSpace=wrap;rounded=0;" parent="1" vertex="1">
                    <mxGeometry x="195" y="380" width="60" height="30" as="geometry"/>
                </mxCell>
                <mxCell id="192" style="edgeStyle=none;html=1;exitX=0.5;exitY=0;exitDx=0;exitDy=0;entryX=0;entryY=1;entryDx=0;entryDy=0;endArrow=none;endFill=0;" parent="1" source="190" target="191" edge="1">
                    <mxGeometry relative="1" as="geometry"/>
                </mxCell>
                <mxCell id="216" style="edgeStyle=none;html=1;entryX=0.699;entryY=0.932;entryDx=0;entryDy=0;entryPerimeter=0;endArrow=none;endFill=0;fontStyle=4;exitX=0.5;exitY=1;exitDx=0;exitDy=0;" parent="1" source="190" target="215" edge="1">
                    <mxGeometry relative="1" as="geometry">
                        <mxPoint x="-190" y="260" as="sourcePoint"/>
                    </mxGeometry>
                </mxCell>
                <mxCell id="190" value="Puzzle" style="rounded=0;whiteSpace=wrap;html=1;" parent="1" vertex="1">
                    <mxGeometry x="-230.00000000000003" y="235" width="80" height="30" as="geometry"/>
                </mxCell>
                <mxCell id="193" style="edgeStyle=none;html=1;exitX=1;exitY=0;exitDx=0;exitDy=0;entryX=0;entryY=0.5;entryDx=0;entryDy=0;endArrow=none;endFill=0;" parent="1" source="191" target="2" edge="1">
                    <mxGeometry relative="1" as="geometry"/>
                </mxCell>
                <mxCell id="198" style="edgeStyle=none;html=1;exitX=0;exitY=0;exitDx=0;exitDy=0;entryX=1;entryY=1;entryDx=0;entryDy=0;endArrow=none;endFill=0;" parent="1" source="191" target="197" edge="1">
                    <mxGeometry relative="1" as="geometry"/>
                </mxCell>
                <mxCell id="214" style="edgeStyle=none;html=1;exitX=0;exitY=0;exitDx=0;exitDy=0;entryX=1;entryY=0.5;entryDx=0;entryDy=0;endArrow=none;endFill=0;" parent="1" source="191" target="213" edge="1">
                    <mxGeometry relative="1" as="geometry"/>
                </mxCell>
                <mxCell id="191" value="Attempts" style="rhombus;whiteSpace=wrap;html=1;" parent="1" vertex="1">
                    <mxGeometry x="-140" y="155" width="80" height="80" as="geometry"/>
                </mxCell>
                <mxCell id="194" value="M" style="text;html=1;strokeColor=none;fillColor=none;align=center;verticalAlign=middle;whiteSpace=wrap;rounded=0;" parent="1" vertex="1">
                    <mxGeometry x="-154.85" y="211" width="60" height="30" as="geometry"/>
                </mxCell>
                <mxCell id="195" value="N" style="text;html=1;strokeColor=none;fillColor=none;align=center;verticalAlign=middle;whiteSpace=wrap;rounded=0;" parent="1" vertex="1">
                    <mxGeometry x="-107" y="150" width="60" height="30" as="geometry"/>
                </mxCell>
                <mxCell id="197" value="is_correct" style="ellipse;whiteSpace=wrap;html=1;" parent="1" vertex="1">
                    <mxGeometry x="-260" y="139" width="80" height="30" as="geometry"/>
                </mxCell>
                <mxCell id="199" value="is_public" style="ellipse;whiteSpace=wrap;html=1;" parent="1" vertex="1">
                    <mxGeometry x="333" y="244" width="80" height="30" as="geometry"/>
                </mxCell>
                <mxCell id="207" style="edgeStyle=none;html=1;exitX=1;exitY=1;exitDx=0;exitDy=0;endArrow=none;endFill=0;entryX=0.5;entryY=1;entryDx=0;entryDy=0;" parent="1" source="208" target="190" edge="1">
                    <mxGeometry relative="1" as="geometry">
                        <mxPoint x="-21" y="-40" as="targetPoint"/>
                    </mxGeometry>
                </mxCell>
                <mxCell id="208" value="pgn" style="ellipse;whiteSpace=wrap;html=1;" parent="1" vertex="1">
                    <mxGeometry x="-310" y="306" width="80" height="30" as="geometry"/>
                </mxCell>
                <mxCell id="209" style="edgeStyle=none;html=1;exitX=0;exitY=0;exitDx=0;exitDy=0;endArrow=none;endFill=0;entryX=0.5;entryY=1;entryDx=0;entryDy=0;" parent="1" source="210" target="190" edge="1">
                    <mxGeometry relative="1" as="geometry">
                        <mxPoint x="-21" y="-40" as="targetPoint"/>
                    </mxGeometry>
                </mxCell>
                <mxCell id="210" value="rating" style="ellipse;whiteSpace=wrap;html=1;" parent="1" vertex="1">
                    <mxGeometry x="-180" y="272" width="80" height="30" as="geometry"/>
                </mxCell>
                <mxCell id="212" style="edgeStyle=none;html=1;exitX=0.5;exitY=0;exitDx=0;exitDy=0;endArrow=none;endFill=0;entryX=0.5;entryY=1;entryDx=0;entryDy=0;" parent="1" source="262" target="190" edge="1">
                    <mxGeometry relative="1" as="geometry">
                        <mxPoint x="-20" y="-40" as="targetPoint"/>
                        <mxPoint x="-226.9999999999999" y="335" as="sourcePoint"/>
                    </mxGeometry>
                </mxCell>
                <mxCell id="213" value="time taken" style="ellipse;whiteSpace=wrap;html=1;" parent="1" vertex="1">
                    <mxGeometry x="-260" y="177" width="80" height="30" as="geometry"/>
                </mxCell>
                <mxCell id="215" value="id" style="ellipse;whiteSpace=wrap;html=1;fontStyle=4" parent="1" vertex="1">
                    <mxGeometry x="-306" y="272" width="80" height="30" as="geometry"/>
                </mxCell>
                <mxCell id="219" value="1" style="text;html=1;align=center;verticalAlign=middle;resizable=0;points=[];autosize=1;strokeColor=none;fillColor=none;" parent="1" vertex="1">
                    <mxGeometry x="188" y="108" width="30" height="30" as="geometry"/>
                </mxCell>
                <mxCell id="220" value="1" style="text;html=1;align=center;verticalAlign=middle;resizable=0;points=[];autosize=1;strokeColor=none;fillColor=none;" parent="1" vertex="1">
                    <mxGeometry x="58" y="177" width="30" height="30" as="geometry"/>
                </mxCell>
                <mxCell id="229" value="" style="edgeStyle=none;html=1;exitX=1;exitY=0.5;exitDx=0;exitDy=0;fontSize=7;entryX=0;entryY=0;entryDx=0;entryDy=0;endArrow=none;endFill=0;" parent="1" source="172" target="171" edge="1">
                    <mxGeometry relative="1" as="geometry">
                        <mxPoint x="622.9289321881811" y="146.92893218818097" as="targetPoint"/>
                        <mxPoint x="509" y="90" as="sourcePoint"/>
                    </mxGeometry>
                </mxCell>
                <mxCell id="236" style="edgeStyle=none;html=1;exitX=1;exitY=1;exitDx=0;exitDy=0;entryX=0.5;entryY=0;entryDx=0;entryDy=0;fontSize=15;endArrow=none;endFill=0;" parent="1" source="230" target="2" edge="1">
                    <mxGeometry relative="1" as="geometry"/>
                </mxCell>
                <mxCell id="230" value="&lt;u&gt;username&lt;/u&gt;" style="ellipse;whiteSpace=wrap;html=1;" parent="1" vertex="1">
                    <mxGeometry x="-83" y="50" width="80" height="30" as="geometry"/>
                </mxCell>
                <mxCell id="241" style="edgeStyle=none;html=1;entryX=0.5;entryY=0;entryDx=0;entryDy=0;fontSize=15;endArrow=none;endFill=0;exitX=1;exitY=1;exitDx=0;exitDy=0;" parent="1" source="OQc9WgbVgx9HTeEOdVWM-259" target="2" edge="1">
                    <mxGeometry relative="1" as="geometry">
                        <mxPoint x="-20" y="10" as="sourcePoint"/>
                    </mxGeometry>
                </mxCell>
                <mxCell id="239" style="edgeStyle=none;html=1;exitX=0;exitY=1;exitDx=0;exitDy=0;entryX=0.5;entryY=0;entryDx=0;entryDy=0;fontSize=15;endArrow=none;endFill=0;" parent="1" source="232" target="2" edge="1">
                    <mxGeometry relative="1" as="geometry"/>
                </mxCell>
                <mxCell id="232" value="birthday" style="ellipse;whiteSpace=wrap;html=1;" parent="1" vertex="1">
                    <mxGeometry x="76" y="24" width="59" height="30" as="geometry"/>
                </mxCell>
                <mxCell id="240" style="edgeStyle=none;html=1;exitX=0;exitY=1;exitDx=0;exitDy=0;entryX=0.5;entryY=0;entryDx=0;entryDy=0;fontSize=15;endArrow=none;endFill=0;" parent="1" source="233" target="2" edge="1">
                    <mxGeometry relative="1" as="geometry"/>
                </mxCell>
                <mxCell id="233" value="email" style="ellipse;whiteSpace=wrap;html=1;" parent="1" vertex="1">
                    <mxGeometry x="59" y="103" width="46" height="30" as="geometry"/>
                </mxCell>
                <mxCell id="238" style="edgeStyle=none;html=1;exitX=1;exitY=0.5;exitDx=0;exitDy=0;entryX=0.5;entryY=0;entryDx=0;entryDy=0;fontSize=15;endArrow=none;endFill=0;" parent="1" source="234" target="2" edge="1">
                    <mxGeometry relative="1" as="geometry"/>
                </mxCell>
                <mxCell id="234" value="about_me" style="ellipse;whiteSpace=wrap;html=1;" parent="1" vertex="1">
                    <mxGeometry x="-107" y="122" width="77" height="30" as="geometry"/>
                </mxCell>
                <mxCell id="237" style="edgeStyle=none;html=1;exitX=1;exitY=1;exitDx=0;exitDy=0;entryX=0.5;entryY=0;entryDx=0;entryDy=0;fontSize=15;endArrow=none;endFill=0;" parent="1" source="235" target="2" edge="1">
                    <mxGeometry relative="1" as="geometry"/>
                </mxCell>
                <mxCell id="235" value="password" style="ellipse;whiteSpace=wrap;html=1;fillColor=#FFFF99;" parent="1" vertex="1">
                    <mxGeometry x="-136" y="90" width="80" height="30" as="geometry"/>
                </mxCell>
                <mxCell id="243" style="edgeStyle=none;html=1;exitX=1;exitY=0.5;exitDx=0;exitDy=0;fontSize=15;endArrow=none;endFill=0;entryX=0;entryY=0.5;entryDx=0;entryDy=0;" parent="1" source="242" target="OQc9WgbVgx9HTeEOdVWM-263" edge="1">
                    <mxGeometry relative="1" as="geometry">
                        <mxPoint x="-20" y="-110" as="targetPoint"/>
                    </mxGeometry>
                </mxCell>
                <mxCell id="242" value="rating" style="ellipse;whiteSpace=wrap;html=1;align=center;dashed=1;fontSize=12;" parent="1" vertex="1">
                    <mxGeometry x="-192" y="-90" width="82" height="30" as="geometry"/>
                </mxCell>
                <mxCell id="246" style="edgeStyle=none;html=1;fontSize=12;endArrow=none;endFill=0;exitX=1;exitY=0.5;exitDx=0;exitDy=0;entryX=0;entryY=0.5;entryDx=0;entryDy=0;" parent="1" source="245" target="OQc9WgbVgx9HTeEOdVWM-263" edge="1">
                    <mxGeometry relative="1" as="geometry">
                        <mxPoint as="sourcePoint"/>
                        <mxPoint x="-20" y="-110" as="targetPoint"/>
                    </mxGeometry>
                </mxCell>
                <mxCell id="245" value="datetime" style="ellipse;whiteSpace=wrap;html=1;fontStyle=0" parent="1" vertex="1">
                    <mxGeometry x="-190" y="-135" width="80" height="30" as="geometry"/>
                </mxCell>
                <mxCell id="247" value="&lt;u&gt;game_id&lt;/u&gt;" style="ellipse;whiteSpace=wrap;html=1;" parent="1" vertex="1">
                    <mxGeometry x="166" y="220" width="80" height="30" as="geometry"/>
                </mxCell>
                <mxCell id="255" style="edgeStyle=none;html=1;entryX=0.5;entryY=0;entryDx=0;entryDy=0;fontSize=12;endArrow=none;endFill=0;exitX=0.5;exitY=1;exitDx=0;exitDy=0;" parent="1" source="OQc9WgbVgx9HTeEOdVWM-261" target="2" edge="1">
                    <mxGeometry relative="1" as="geometry">
                        <mxPoint x="40" y="10" as="sourcePoint"/>
                    </mxGeometry>
                </mxCell>
                <mxCell id="259" style="edgeStyle=none;html=1;exitX=0.5;exitY=0;exitDx=0;exitDy=0;entryX=0.5;entryY=1;entryDx=0;entryDy=0;fontSize=12;endArrow=none;endFill=0;" parent="1" source="256" target="110" edge="1">
                    <mxGeometry relative="1" as="geometry"/>
                </mxCell>
                <mxCell id="256" value="is_rated" style="ellipse;whiteSpace=wrap;html=1;" parent="1" vertex="1">
                    <mxGeometry x="195" y="255" width="80" height="30" as="geometry"/>
                </mxCell>
                <mxCell id="9jrhtH56ObUyArtZx7Ql-261" style="edgeStyle=none;rounded=0;html=1;exitX=0.5;exitY=0;exitDx=0;exitDy=0;entryX=0.5;entryY=1;entryDx=0;entryDy=0;endArrow=none;endFill=0;" parent="1" source="9jrhtH56ObUyArtZx7Ql-259" target="190" edge="1">
                    <mxGeometry relative="1" as="geometry"/>
                </mxCell>
                <mxCell id="9jrhtH56ObUyArtZx7Ql-259" value="movelist" style="ellipse;whiteSpace=wrap;html=1;" parent="1" vertex="1">
                    <mxGeometry x="-216" y="309" width="80" height="30" as="geometry"/>
                </mxCell>
                <mxCell id="OQc9WgbVgx9HTeEOdVWM-264" style="edgeStyle=none;rounded=0;html=1;entryX=0.5;entryY=1;entryDx=0;entryDy=0;endArrow=none;endFill=0;shape=link;exitX=0.5;exitY=0;exitDx=0;exitDy=0;" parent="1" source="OQc9WgbVgx9HTeEOdVWM-259" target="OQc9WgbVgx9HTeEOdVWM-263" edge="1">
                    <mxGeometry relative="1" as="geometry">
                        <mxPoint x="-50" y="-15" as="sourcePoint"/>
                    </mxGeometry>
                </mxCell>
                <mxCell id="OQc9WgbVgx9HTeEOdVWM-259" value="has_R" style="shape=rhombus;double=1;perimeter=rhombusPerimeter;whiteSpace=wrap;html=1;align=center;" parent="1" vertex="1">
                    <mxGeometry x="-70" y="-35" width="80" height="80" as="geometry"/>
                </mxCell>
                <mxCell id="OQc9WgbVgx9HTeEOdVWM-273" style="edgeStyle=none;rounded=0;html=1;exitX=0.5;exitY=0;exitDx=0;exitDy=0;entryX=0.5;entryY=1;entryDx=0;entryDy=0;endArrow=none;endFill=0;shape=link;" parent="1" source="OQc9WgbVgx9HTeEOdVWM-261" target="OQc9WgbVgx9HTeEOdVWM-271" edge="1">
                    <mxGeometry relative="1" as="geometry"/>
                </mxCell>
                <mxCell id="OQc9WgbVgx9HTeEOdVWM-261" value="has_P" style="shape=rhombus;double=1;perimeter=rhombusPerimeter;whiteSpace=wrap;html=1;align=center;" parent="1" vertex="1">
                    <mxGeometry x="6" y="-47.5" width="80" height="80" as="geometry"/>
                </mxCell>
                <mxCell id="OQc9WgbVgx9HTeEOdVWM-263" value="rating_hist" style="shape=ext;margin=3;double=1;whiteSpace=wrap;html=1;align=center;" parent="1" vertex="1">
                    <mxGeometry x="-94.85" y="-107.5" width="80" height="30" as="geometry"/>
                </mxCell>
                <mxCell id="OQc9WgbVgx9HTeEOdVWM-266" value="" style="endArrow=none;dashed=1;html=1;strokeWidth=1;" parent="1" edge="1">
                    <mxGeometry width="50" height="50" relative="1" as="geometry">
                        <mxPoint x="-172" y="-114" as="sourcePoint"/>
                        <mxPoint x="-127" y="-114" as="targetPoint"/>
                    </mxGeometry>
                </mxCell>
                <mxCell id="OQc9WgbVgx9HTeEOdVWM-267" style="edgeStyle=none;html=1;exitX=0;exitY=0;exitDx=0;exitDy=0;fontSize=15;endArrow=none;endFill=0;entryX=1;entryY=0.5;entryDx=0;entryDy=0;" parent="1" source="OQc9WgbVgx9HTeEOdVWM-268" target="OQc9WgbVgx9HTeEOdVWM-271" edge="1">
                    <mxGeometry relative="1" as="geometry">
                        <mxPoint x="198.15" y="-90" as="targetPoint"/>
                    </mxGeometry>
                </mxCell>
                <mxCell id="OQc9WgbVgx9HTeEOdVWM-268" value="rating" style="ellipse;whiteSpace=wrap;html=1;align=center;dashed=1;fontSize=12;" parent="1" vertex="1">
                    <mxGeometry x="105" y="-90" width="82" height="30" as="geometry"/>
                </mxCell>
                <mxCell id="OQc9WgbVgx9HTeEOdVWM-269" style="edgeStyle=none;html=1;fontSize=12;endArrow=none;endFill=0;exitX=0;exitY=1;exitDx=0;exitDy=0;entryX=1;entryY=0.5;entryDx=0;entryDy=0;" parent="1" source="OQc9WgbVgx9HTeEOdVWM-270" target="OQc9WgbVgx9HTeEOdVWM-271" edge="1">
                    <mxGeometry relative="1" as="geometry">
                        <mxPoint x="293" y="5" as="sourcePoint"/>
                        <mxPoint x="60" y="-120" as="targetPoint"/>
                    </mxGeometry>
                </mxCell>
                <mxCell id="OQc9WgbVgx9HTeEOdVWM-270" value="datetime" style="ellipse;whiteSpace=wrap;html=1;fontStyle=0" parent="1" vertex="1">
                    <mxGeometry x="105" y="-125" width="80" height="30" as="geometry"/>
                </mxCell>
                <mxCell id="OQc9WgbVgx9HTeEOdVWM-271" value="puzzle_hist" style="shape=ext;margin=3;double=1;whiteSpace=wrap;html=1;align=center;" parent="1" vertex="1">
                    <mxGeometry x="16" y="-107.5" width="80" height="30" as="geometry"/>
                </mxCell>
                <mxCell id="OQc9WgbVgx9HTeEOdVWM-272" value="" style="endArrow=none;dashed=1;html=1;strokeWidth=1;" parent="1" edge="1">
                    <mxGeometry width="50" height="50" relative="1" as="geometry">
                        <mxPoint x="123" y="-104" as="sourcePoint"/>
                        <mxPoint x="168" y="-104" as="targetPoint"/>
                    </mxGeometry>
                </mxCell>
                <mxCell id="OQc9WgbVgx9HTeEOdVWM-274" value="N" style="text;html=1;strokeColor=none;fillColor=none;align=center;verticalAlign=middle;whiteSpace=wrap;rounded=0;" parent="1" vertex="1">
                    <mxGeometry x="-73" y="-51" width="60" height="30" as="geometry"/>
                </mxCell>
                <mxCell id="OQc9WgbVgx9HTeEOdVWM-275" value="1" style="text;html=1;strokeColor=none;fillColor=none;align=center;verticalAlign=middle;whiteSpace=wrap;rounded=0;" parent="1" vertex="1">
                    <mxGeometry x="-30" y="15" width="60" height="30" as="geometry"/>
                </mxCell>
                <mxCell id="OQc9WgbVgx9HTeEOdVWM-276" value="N" style="text;html=1;strokeColor=none;fillColor=none;align=center;verticalAlign=middle;whiteSpace=wrap;rounded=0;" parent="1" vertex="1">
                    <mxGeometry x="16" y="-56" width="60" height="30" as="geometry"/>
                </mxCell>
                <mxCell id="OQc9WgbVgx9HTeEOdVWM-277" value="1" style="text;html=1;strokeColor=none;fillColor=none;align=center;verticalAlign=middle;whiteSpace=wrap;rounded=0;" parent="1" vertex="1">
                    <mxGeometry x="20" y="24" width="60" height="30" as="geometry"/>
                </mxCell>
                <mxCell id="261" style="edgeStyle=none;html=1;exitX=1;exitY=1;exitDx=0;exitDy=0;entryX=0;entryY=0;entryDx=0;entryDy=0;endArrow=none;endFill=0;" parent="1" source="260" target="191" edge="1">
                    <mxGeometry relative="1" as="geometry"/>
                </mxCell>
                <mxCell id="260" value="attempt_&lt;br&gt;datetime" style="ellipse;whiteSpace=wrap;html=1;" parent="1" vertex="1">
                    <mxGeometry x="-220" y="108" width="80" height="30" as="geometry"/>
                </mxCell>
                <mxCell id="262" value="solve_count" style="ellipse;whiteSpace=wrap;html=1;align=center;dashed=1;fontSize=12;" parent="1" vertex="1">
                    <mxGeometry x="-272" y="340" width="82" height="30" as="geometry"/>
                </mxCell>
                <mxCell id="4lIQrsCP6TLVKUDZCTNA-265" style="edgeStyle=none;html=1;exitX=1;exitY=1;exitDx=0;exitDy=0;entryX=0.5;entryY=0;entryDx=0;entryDy=0;endArrow=none;endFill=0;" parent="1" source="4lIQrsCP6TLVKUDZCTNA-262" target="172" edge="1">
                    <mxGeometry relative="1" as="geometry"/>
                </mxCell>
                <mxCell id="4lIQrsCP6TLVKUDZCTNA-262" value="name" style="ellipse;whiteSpace=wrap;html=1;" parent="1" vertex="1">
                    <mxGeometry x="363" y="24" width="80" height="30" as="geometry"/>
                </mxCell>
                <mxCell id="LQHIfFrEBXIkkO64qZ1d-264" style="edgeStyle=none;html=1;exitX=0;exitY=0;exitDx=0;exitDy=0;entryX=0.5;entryY=1;entryDx=0;entryDy=0;endArrow=none;endFill=0;" parent="1" source="LQHIfFrEBXIkkO64qZ1d-263" target="110" edge="1">
                    <mxGeometry relative="1" as="geometry"/>
                </mxCell>
                <mxCell id="LQHIfFrEBXIkkO64qZ1d-263" value="datetime" style="ellipse;whiteSpace=wrap;html=1;" parent="1" vertex="1">
                    <mxGeometry x="322" y="279" width="80" height="30" as="geometry"/>
                </mxCell>
                <mxCell id="265" style="edgeStyle=none;html=1;exitX=1;exitY=1;exitDx=0;exitDy=0;entryX=0;entryY=0;entryDx=0;entryDy=0;shape=link;" parent="1" source="263" target="110" edge="1">
                    <mxGeometry relative="1" as="geometry"/>
                </mxCell>
                <mxCell id="263" value="Black_Plays" style="rhombus;whiteSpace=wrap;html=1;fillColor=#FFFF99;" parent="1" vertex="1">
                    <mxGeometry x="163" y="95" width="80" height="80" as="geometry"/>
                </mxCell>
                <mxCell id="264" value="N" style="text;html=1;align=center;verticalAlign=middle;resizable=0;points=[];autosize=1;strokeColor=none;fillColor=none;" parent="1" vertex="1">
                    <mxGeometry x="160" y="186" width="30" height="30" as="geometry"/>
                </mxCell>
                <mxCell id="266" value="1" style="text;html=1;align=center;verticalAlign=middle;resizable=0;points=[];autosize=1;strokeColor=none;fillColor=none;" parent="1" vertex="1">
                    <mxGeometry x="140" y="115" width="30" height="30" as="geometry"/>
                </mxCell>
                <mxCell id="268" style="edgeStyle=none;html=1;exitX=0.5;exitY=1;exitDx=0;exitDy=0;entryX=0.5;entryY=0;entryDx=0;entryDy=0;endArrow=none;endFill=0;" parent="1" source="49" target="269" edge="1">
                    <mxGeometry relative="1" as="geometry">
                        <mxPoint x="392" y="460" as="sourcePoint"/>
                    </mxGeometry>
                </mxCell>
                <mxCell id="269" value="about_team" style="ellipse;whiteSpace=wrap;html=1;fillColor=#FFFF99;" parent="1" vertex="1">
                    <mxGeometry x="322" y="470" width="80" height="30" as="geometry"/>
                </mxCell>
                <mxCell id="270" style="edgeStyle=none;html=1;exitX=0.5;exitY=0;exitDx=0;exitDy=0;endArrow=none;endFill=0;entryX=0.5;entryY=1;entryDx=0;entryDy=0;" parent="1" source="271" target="49" edge="1">
                    <mxGeometry relative="1" as="geometry">
                        <mxPoint x="392" y="460.0000000000002" as="targetPoint"/>
                    </mxGeometry>
                </mxCell>
                <mxCell id="271" value="icon" style="ellipse;whiteSpace=wrap;html=1;fillColor=#FFFF99;" parent="1" vertex="1">
                    <mxGeometry x="410" y="470" width="80" height="30" as="geometry"/>
                </mxCell>
                <mxCell id="273" style="edgeStyle=none;html=1;exitX=1;exitY=1;exitDx=0;exitDy=0;entryX=0.5;entryY=0;entryDx=0;entryDy=0;endArrow=none;endFill=0;" parent="1" source="272" target="2" edge="1">
                    <mxGeometry relative="1" as="geometry"/>
                </mxCell>
                <mxCell id="272" value="avatar" style="ellipse;whiteSpace=wrap;html=1;fillColor=#FFFF99;" parent="1" vertex="1">
                    <mxGeometry x="-164.85" y="50" width="80" height="30" as="geometry"/>
                </mxCell>
                <mxCell id="274" value="create_date" style="ellipse;whiteSpace=wrap;html=1;" parent="1" vertex="1">
                    <mxGeometry x="83" y="60" width="80" height="30" as="geometry"/>
                </mxCell>
                <mxCell id="FY6CdhLmrrAlrTizcclZ-276" style="edgeStyle=none;html=1;exitX=0.5;exitY=0;exitDx=0;exitDy=0;entryX=0.5;entryY=1;entryDx=0;entryDy=0;endArrow=none;endFill=0;" parent="1" target="49" edge="1">
                    <mxGeometry relative="1" as="geometry">
                        <mxPoint x="410" y="500" as="sourcePoint"/>
                    </mxGeometry>
                </mxCell>
                <mxCell id="FY6CdhLmrrAlrTizcclZ-277" value="member_cnt" style="ellipse;whiteSpace=wrap;html=1;align=center;dashed=1;fontSize=12;fillColor=#FFFF99;" parent="1" vertex="1">
                    <mxGeometry x="368" y="500" width="82" height="30" as="geometry"/>
                </mxCell>
            </root>
        </mxGraphModel>
    </diagram>
    <diagram id="KHDgAlIqXKx0K6EJpq0L" name="Relational Model">
        <mxGraphModel dx="1370" dy="521" grid="1" gridSize="10" guides="1" tooltips="1" connect="1" arrows="1" fold="1" page="1" pageScale="1" pageWidth="850" pageHeight="1100" math="0" shadow="0">
            <root>
                <mxCell id="0"/>
                <mxCell id="1" parent="0"/>
                <mxCell id="hboSqb5Xl3xaXRTqzZCY-1" value="&lt;u&gt;username&lt;/u&gt;" style="rounded=0;whiteSpace=wrap;html=1;" parent="1" vertex="1">
                    <mxGeometry x="80" y="165" width="100" height="30" as="geometry"/>
                </mxCell>
                <mxCell id="hboSqb5Xl3xaXRTqzZCY-2" value="about_me" style="rounded=0;whiteSpace=wrap;html=1;fillColor=#FFFF99;" parent="1" vertex="1">
                    <mxGeometry x="280" y="165" width="100" height="30" as="geometry"/>
                </mxCell>
                <mxCell id="hboSqb5Xl3xaXRTqzZCY-3" value="password" style="rounded=0;whiteSpace=wrap;html=1;" parent="1" vertex="1">
                    <mxGeometry x="180" y="165" width="100" height="30" as="geometry"/>
                </mxCell>
                <mxCell id="hboSqb5Xl3xaXRTqzZCY-4" value="birthday" style="rounded=0;whiteSpace=wrap;html=1;" parent="1" vertex="1">
                    <mxGeometry x="380" y="165" width="100" height="30" as="geometry"/>
                </mxCell>
                <mxCell id="hboSqb5Xl3xaXRTqzZCY-5" value="email" style="rounded=0;whiteSpace=wrap;html=1;" parent="1" vertex="1">
                    <mxGeometry x="480" y="165" width="100" height="30" as="geometry"/>
                </mxCell>
                <mxCell id="hboSqb5Xl3xaXRTqzZCY-6" style="edgeStyle=orthogonalEdgeStyle;html=1;exitX=0.5;exitY=0;exitDx=0;exitDy=0;entryX=0.5;entryY=1;entryDx=0;entryDy=0;rounded=0;" parent="1" source="hboSqb5Xl3xaXRTqzZCY-7" target="hboSqb5Xl3xaXRTqzZCY-8" edge="1">
                    <mxGeometry relative="1" as="geometry"/>
                </mxCell>
                <mxCell id="hboSqb5Xl3xaXRTqzZCY-7" value="team_name" style="rounded=0;whiteSpace=wrap;html=1;" parent="1" vertex="1">
                    <mxGeometry x="780" y="165" width="100" height="30" as="geometry"/>
                </mxCell>
                <mxCell id="hboSqb5Xl3xaXRTqzZCY-8" value="&lt;u&gt;team_name&lt;/u&gt;" style="rounded=0;whiteSpace=wrap;html=1;" parent="1" vertex="1">
                    <mxGeometry x="80" y="85" width="100" height="30" as="geometry"/>
                </mxCell>
                <mxCell id="hboSqb5Xl3xaXRTqzZCY-9" value="creation date" style="rounded=0;whiteSpace=wrap;html=1;" parent="1" vertex="1">
                    <mxGeometry x="180" y="85" width="100" height="30" as="geometry"/>
                </mxCell>
                <mxCell id="hboSqb5Xl3xaXRTqzZCY-10" value="&lt;u&gt;id&lt;/u&gt;" style="rounded=0;whiteSpace=wrap;html=1;" parent="1" vertex="1">
                    <mxGeometry x="80" y="265" width="100" height="30" as="geometry"/>
                </mxCell>
                <mxCell id="hboSqb5Xl3xaXRTqzZCY-11" style="edgeStyle=orthogonalEdgeStyle;html=1;exitX=0.5;exitY=0;exitDx=0;exitDy=0;entryX=0.5;entryY=1;entryDx=0;entryDy=0;rounded=0;" parent="1" source="hboSqb5Xl3xaXRTqzZCY-12" target="hboSqb5Xl3xaXRTqzZCY-1" edge="1">
                    <mxGeometry relative="1" as="geometry"/>
                </mxCell>
                <mxCell id="hboSqb5Xl3xaXRTqzZCY-12" value="approver_name" style="rounded=0;whiteSpace=wrap;html=1;" parent="1" vertex="1">
                    <mxGeometry x="280" y="265" width="100" height="30" as="geometry"/>
                </mxCell>
                <mxCell id="hboSqb5Xl3xaXRTqzZCY-13" style="edgeStyle=orthogonalEdgeStyle;html=1;exitX=0.5;exitY=0;exitDx=0;exitDy=0;entryX=0.5;entryY=1;entryDx=0;entryDy=0;rounded=0;" parent="1" source="hboSqb5Xl3xaXRTqzZCY-14" target="hboSqb5Xl3xaXRTqzZCY-1" edge="1">
                    <mxGeometry relative="1" as="geometry"/>
                </mxCell>
                <mxCell id="hboSqb5Xl3xaXRTqzZCY-14" value="creator_name" style="rounded=0;whiteSpace=wrap;html=1;fontStyle=4" parent="1" vertex="1">
                    <mxGeometry x="180" y="265" width="100" height="30" as="geometry"/>
                </mxCell>
                <mxCell id="hboSqb5Xl3xaXRTqzZCY-15" value="mod_start_date" style="rounded=0;whiteSpace=wrap;html=1;" parent="1" vertex="1">
                    <mxGeometry x="880" y="165" width="100" height="30" as="geometry"/>
                </mxCell>
                <mxCell id="hboSqb5Xl3xaXRTqzZCY-16" value="&lt;u&gt;Team&lt;/u&gt;" style="text;html=1;strokeColor=none;fillColor=none;align=center;verticalAlign=middle;whiteSpace=wrap;rounded=0;" parent="1" vertex="1">
                    <mxGeometry x="71" y="60" width="60" height="30" as="geometry"/>
                </mxCell>
                <mxCell id="hboSqb5Xl3xaXRTqzZCY-17" value="&lt;u&gt;Player&lt;/u&gt;" style="text;html=1;strokeColor=none;fillColor=none;align=center;verticalAlign=middle;whiteSpace=wrap;rounded=0;" parent="1" vertex="1">
                    <mxGeometry x="76" y="139" width="60" height="30" as="geometry"/>
                </mxCell>
                <mxCell id="hboSqb5Xl3xaXRTqzZCY-18" value="&lt;u&gt;Application&lt;/u&gt;" style="text;html=1;strokeColor=none;fillColor=none;align=center;verticalAlign=middle;whiteSpace=wrap;rounded=0;" parent="1" vertex="1">
                    <mxGeometry x="87" y="239" width="60" height="30" as="geometry"/>
                </mxCell>
                <mxCell id="hboSqb5Xl3xaXRTqzZCY-21" value="join_date" style="rounded=0;whiteSpace=wrap;html=1;" parent="1" vertex="1">
                    <mxGeometry x="980" y="165" width="100" height="30" as="geometry"/>
                </mxCell>
                <mxCell id="hboSqb5Xl3xaXRTqzZCY-22" value="&lt;u&gt;game_id&lt;/u&gt;" style="rounded=0;whiteSpace=wrap;html=1;" parent="1" vertex="1">
                    <mxGeometry x="80" y="328" width="100" height="30" as="geometry"/>
                </mxCell>
                <mxCell id="hboSqb5Xl3xaXRTqzZCY-23" value="increment" style="rounded=0;whiteSpace=wrap;html=1;" parent="1" vertex="1">
                    <mxGeometry x="380" y="328" width="100" height="30" as="geometry"/>
                </mxCell>
                <mxCell id="hboSqb5Xl3xaXRTqzZCY-24" value="initial_limit" style="rounded=0;whiteSpace=wrap;html=1;fontStyle=0" parent="1" vertex="1">
                    <mxGeometry x="280" y="328" width="100" height="30" as="geometry"/>
                </mxCell>
                <mxCell id="hboSqb5Xl3xaXRTqzZCY-25" value="&lt;u&gt;Game&lt;/u&gt;" style="text;html=1;strokeColor=none;fillColor=none;align=center;verticalAlign=middle;whiteSpace=wrap;rounded=0;" parent="1" vertex="1">
                    <mxGeometry x="75" y="302" width="60" height="30" as="geometry"/>
                </mxCell>
                <mxCell id="hboSqb5Xl3xaXRTqzZCY-26" value="is_public" style="rounded=0;whiteSpace=wrap;html=1;" parent="1" vertex="1">
                    <mxGeometry x="580" y="328" width="100" height="30" as="geometry"/>
                </mxCell>
                <mxCell id="hboSqb5Xl3xaXRTqzZCY-27" style="edgeStyle=orthogonalEdgeStyle;html=1;exitX=0.5;exitY=0;exitDx=0;exitDy=0;entryX=0.5;entryY=1;entryDx=0;entryDy=0;rounded=0;" parent="1" source="hboSqb5Xl3xaXRTqzZCY-29" target="hboSqb5Xl3xaXRTqzZCY-1" edge="1">
                    <mxGeometry relative="1" as="geometry">
                        <mxPoint x="530" y="329" as="sourcePoint"/>
                        <mxPoint x="130" y="196.0000000000001" as="targetPoint"/>
                        <Array as="points">
                            <mxPoint x="830" y="328"/>
                            <mxPoint x="830" y="310"/>
                            <mxPoint x="10" y="310"/>
                            <mxPoint x="10" y="230"/>
                            <mxPoint x="130" y="230"/>
                        </Array>
                    </mxGeometry>
                </mxCell>
                <mxCell id="hboSqb5Xl3xaXRTqzZCY-29" value="player1_name" style="rounded=0;whiteSpace=wrap;html=1;" parent="1" vertex="1">
                    <mxGeometry x="780" y="328" width="100" height="30" as="geometry"/>
                </mxCell>
                <mxCell id="hboSqb5Xl3xaXRTqzZCY-30" style="edgeStyle=orthogonalEdgeStyle;html=1;exitX=0.5;exitY=0;exitDx=0;exitDy=0;entryX=0.5;entryY=1;entryDx=0;entryDy=0;rounded=0;" parent="1" source="hboSqb5Xl3xaXRTqzZCY-32" target="hboSqb5Xl3xaXRTqzZCY-1" edge="1">
                    <mxGeometry relative="1" as="geometry">
                        <mxPoint x="630" y="323" as="sourcePoint"/>
                        <mxPoint x="130" y="190.0000000000001" as="targetPoint"/>
                        <Array as="points">
                            <mxPoint x="930" y="310"/>
                            <mxPoint x="10" y="310"/>
                            <mxPoint x="10" y="230"/>
                            <mxPoint x="130" y="230"/>
                        </Array>
                    </mxGeometry>
                </mxCell>
                <mxCell id="hboSqb5Xl3xaXRTqzZCY-32" value="player2_name" style="rounded=0;whiteSpace=wrap;html=1;" parent="1" vertex="1">
                    <mxGeometry x="880" y="328" width="100" height="30" as="geometry"/>
                </mxCell>
                <mxCell id="hboSqb5Xl3xaXRTqzZCY-33" style="edgeStyle=orthogonalEdgeStyle;html=1;exitX=0.5;exitY=1;exitDx=0;exitDy=0;entryX=0.5;entryY=1;entryDx=0;entryDy=0;rounded=0;" parent="1" source="hboSqb5Xl3xaXRTqzZCY-34" target="hboSqb5Xl3xaXRTqzZCY-35" edge="1">
                    <mxGeometry relative="1" as="geometry">
                        <Array as="points">
                            <mxPoint x="1030" y="375"/>
                            <mxPoint x="40" y="375"/>
                            <mxPoint x="40" y="445"/>
                            <mxPoint x="130" y="445"/>
                        </Array>
                    </mxGeometry>
                </mxCell>
                <mxCell id="hboSqb5Xl3xaXRTqzZCY-34" value="tournament_id" style="rounded=0;whiteSpace=wrap;html=1;" parent="1" vertex="1">
                    <mxGeometry x="980" y="328" width="100" height="30" as="geometry"/>
                </mxCell>
                <mxCell id="hboSqb5Xl3xaXRTqzZCY-35" value="&lt;u&gt;tournament_id&lt;/u&gt;" style="rounded=0;whiteSpace=wrap;html=1;" parent="1" vertex="1">
                    <mxGeometry x="80" y="398" width="100" height="30" as="geometry"/>
                </mxCell>
                <mxCell id="hboSqb5Xl3xaXRTqzZCY-36" value="is_public" style="rounded=0;whiteSpace=wrap;html=1;" parent="1" vertex="1">
                    <mxGeometry x="380" y="398" width="100" height="30" as="geometry"/>
                </mxCell>
                <mxCell id="hboSqb5Xl3xaXRTqzZCY-37" value="is_rated" style="rounded=0;whiteSpace=wrap;html=1;fontStyle=0" parent="1" vertex="1">
                    <mxGeometry x="280" y="398" width="100" height="30" as="geometry"/>
                </mxCell>
                <mxCell id="hboSqb5Xl3xaXRTqzZCY-38" value="start_datetime" style="rounded=0;whiteSpace=wrap;html=1;" parent="1" vertex="1">
                    <mxGeometry x="480" y="398" width="100" height="30" as="geometry"/>
                </mxCell>
                <mxCell id="hboSqb5Xl3xaXRTqzZCY-39" value="end_datetime" style="rounded=0;whiteSpace=wrap;html=1;" parent="1" vertex="1">
                    <mxGeometry x="580" y="398" width="100" height="30" as="geometry"/>
                </mxCell>
                <mxCell id="hboSqb5Xl3xaXRTqzZCY-40" value="initial_limit" style="rounded=0;whiteSpace=wrap;html=1;" parent="1" vertex="1">
                    <mxGeometry x="680" y="398" width="100" height="30" as="geometry"/>
                </mxCell>
                <mxCell id="hboSqb5Xl3xaXRTqzZCY-41" value="increment" style="rounded=0;whiteSpace=wrap;html=1;" parent="1" vertex="1">
                    <mxGeometry x="780" y="398" width="100" height="30" as="geometry"/>
                </mxCell>
                <mxCell id="hboSqb5Xl3xaXRTqzZCY-42" value="&lt;u&gt;Tournament&lt;/u&gt;" style="text;html=1;strokeColor=none;fillColor=none;align=center;verticalAlign=middle;whiteSpace=wrap;rounded=0;" parent="1" vertex="1">
                    <mxGeometry x="90" y="372" width="60" height="30" as="geometry"/>
                </mxCell>
                <mxCell id="hboSqb5Xl3xaXRTqzZCY-43" value="is_rated" style="rounded=0;whiteSpace=wrap;html=1;fontStyle=0" parent="1" vertex="1">
                    <mxGeometry x="680" y="328" width="100" height="30" as="geometry"/>
                </mxCell>
                <mxCell id="hboSqb5Xl3xaXRTqzZCY-44" style="edgeStyle=orthogonalEdgeStyle;html=1;exitX=1;exitY=0.5;exitDx=0;exitDy=0;rounded=0;" parent="1" source="hboSqb5Xl3xaXRTqzZCY-45" edge="1">
                    <mxGeometry relative="1" as="geometry">
                        <mxPoint x="880" y="406" as="sourcePoint"/>
                        <mxPoint x="130" y="115" as="targetPoint"/>
                        <Array as="points">
                            <mxPoint x="880" y="413"/>
                            <mxPoint x="880" y="415"/>
                            <mxPoint x="1110" y="415"/>
                            <mxPoint x="1110" y="140"/>
                            <mxPoint x="130" y="140"/>
                        </Array>
                    </mxGeometry>
                </mxCell>
                <mxCell id="hboSqb5Xl3xaXRTqzZCY-45" value="host_team_name" style="rounded=0;whiteSpace=wrap;html=1;" parent="1" vertex="1">
                    <mxGeometry x="880" y="398" width="100" height="30" as="geometry"/>
                </mxCell>
                <mxCell id="hboSqb5Xl3xaXRTqzZCY-46" value="&lt;u&gt;puzzle_id&lt;/u&gt;" style="rounded=0;whiteSpace=wrap;html=1;" parent="1" vertex="1">
                    <mxGeometry x="80" y="615" width="100" height="30" as="geometry"/>
                </mxCell>
                <mxCell id="hboSqb5Xl3xaXRTqzZCY-47" value="movelist" style="rounded=0;whiteSpace=wrap;html=1;" parent="1" vertex="1">
                    <mxGeometry x="180" y="615" width="100" height="30" as="geometry"/>
                </mxCell>
                <mxCell id="hboSqb5Xl3xaXRTqzZCY-48" value="&lt;u&gt;Puzzle&lt;/u&gt;" style="text;html=1;strokeColor=none;fillColor=none;align=center;verticalAlign=middle;whiteSpace=wrap;rounded=0;" parent="1" vertex="1">
                    <mxGeometry x="71" y="590" width="60" height="30" as="geometry"/>
                </mxCell>
                <mxCell id="hboSqb5Xl3xaXRTqzZCY-49" value="fen" style="rounded=0;whiteSpace=wrap;html=1;" parent="1" vertex="1">
                    <mxGeometry x="280" y="615" width="100" height="30" as="geometry"/>
                </mxCell>
                <mxCell id="hboSqb5Xl3xaXRTqzZCY-50" value="rating" style="rounded=0;whiteSpace=wrap;html=1;" parent="1" vertex="1">
                    <mxGeometry x="380" y="615" width="100" height="30" as="geometry"/>
                </mxCell>
                <mxCell id="hboSqb5Xl3xaXRTqzZCY-51" value="solve_count" style="rounded=0;whiteSpace=wrap;html=1;" parent="1" vertex="1">
                    <mxGeometry x="480" y="615" width="100" height="30" as="geometry"/>
                </mxCell>
                <mxCell id="hboSqb5Xl3xaXRTqzZCY-52" style="edgeStyle=orthogonalEdgeStyle;html=1;exitX=0.75;exitY=0;exitDx=0;exitDy=0;entryX=0.5;entryY=1;entryDx=0;entryDy=0;rounded=0;" parent="1" source="hboSqb5Xl3xaXRTqzZCY-53" target="hboSqb5Xl3xaXRTqzZCY-35" edge="1">
                    <mxGeometry relative="1" as="geometry">
                        <mxPoint x="140" y="435" as="targetPoint"/>
                        <Array as="points">
                            <mxPoint x="155" y="445"/>
                            <mxPoint x="130" y="445"/>
                        </Array>
                    </mxGeometry>
                </mxCell>
                <mxCell id="hboSqb5Xl3xaXRTqzZCY-53" value="&lt;u&gt;tournament_id&lt;/u&gt;" style="rounded=0;whiteSpace=wrap;html=1;" parent="1" vertex="1">
                    <mxGeometry x="80" y="475" width="100" height="30" as="geometry"/>
                </mxCell>
                <mxCell id="hboSqb5Xl3xaXRTqzZCY-54" style="edgeStyle=orthogonalEdgeStyle;html=1;exitX=0.5;exitY=1;exitDx=0;exitDy=0;entryX=0.5;entryY=1;entryDx=0;entryDy=0;rounded=0;" parent="1" source="hboSqb5Xl3xaXRTqzZCY-55" target="hboSqb5Xl3xaXRTqzZCY-1" edge="1">
                    <mxGeometry relative="1" as="geometry">
                        <Array as="points">
                            <mxPoint x="230" y="521"/>
                            <mxPoint x="10" y="521"/>
                            <mxPoint x="10" y="230"/>
                            <mxPoint x="130" y="230"/>
                        </Array>
                    </mxGeometry>
                </mxCell>
                <mxCell id="hboSqb5Xl3xaXRTqzZCY-55" value="&lt;u&gt;player_name&lt;/u&gt;" style="rounded=0;whiteSpace=wrap;html=1;" parent="1" vertex="1">
                    <mxGeometry x="180" y="475" width="100" height="30" as="geometry"/>
                </mxCell>
                <mxCell id="hboSqb5Xl3xaXRTqzZCY-56" value="ranking" style="rounded=0;whiteSpace=wrap;html=1;" parent="1" vertex="1">
                    <mxGeometry x="280" y="475" width="100" height="30" as="geometry"/>
                </mxCell>
                <mxCell id="hboSqb5Xl3xaXRTqzZCY-57" value="score" style="rounded=0;whiteSpace=wrap;html=1;" parent="1" vertex="1">
                    <mxGeometry x="380" y="475" width="100" height="30" as="geometry"/>
                </mxCell>
                <mxCell id="hboSqb5Xl3xaXRTqzZCY-58" value="performance" style="rounded=0;whiteSpace=wrap;html=1;" parent="1" vertex="1">
                    <mxGeometry x="480" y="475" width="100" height="30" as="geometry"/>
                </mxCell>
                <mxCell id="hboSqb5Xl3xaXRTqzZCY-59" style="edgeStyle=orthogonalEdgeStyle;html=1;exitX=0.5;exitY=1;exitDx=0;exitDy=0;entryX=0.5;entryY=1;entryDx=0;entryDy=0;rounded=0;" parent="1" source="hboSqb5Xl3xaXRTqzZCY-60" target="hboSqb5Xl3xaXRTqzZCY-46" edge="1">
                    <mxGeometry relative="1" as="geometry">
                        <Array as="points">
                            <mxPoint x="130" y="585"/>
                            <mxPoint x="70" y="585"/>
                            <mxPoint x="70" y="655"/>
                            <mxPoint x="130" y="655"/>
                        </Array>
                    </mxGeometry>
                </mxCell>
                <mxCell id="hboSqb5Xl3xaXRTqzZCY-60" value="&lt;u&gt;puzzle_id&lt;/u&gt;" style="rounded=0;whiteSpace=wrap;html=1;" parent="1" vertex="1">
                    <mxGeometry x="80" y="545" width="100" height="30" as="geometry"/>
                </mxCell>
                <mxCell id="hboSqb5Xl3xaXRTqzZCY-61" style="edgeStyle=orthogonalEdgeStyle;html=1;exitX=0.5;exitY=0;exitDx=0;exitDy=0;rounded=0;" parent="1" source="hboSqb5Xl3xaXRTqzZCY-62" edge="1">
                    <mxGeometry relative="1" as="geometry">
                        <mxPoint x="230" y="540" as="sourcePoint"/>
                        <mxPoint x="130" y="195" as="targetPoint"/>
                        <Array as="points">
                            <mxPoint x="230" y="521"/>
                            <mxPoint x="10" y="521"/>
                            <mxPoint x="10" y="230"/>
                            <mxPoint x="130" y="230"/>
                        </Array>
                    </mxGeometry>
                </mxCell>
                <mxCell id="hboSqb5Xl3xaXRTqzZCY-62" value="&lt;u&gt;player_name&lt;/u&gt;" style="rounded=0;whiteSpace=wrap;html=1;" parent="1" vertex="1">
                    <mxGeometry x="180" y="545" width="100" height="30" as="geometry"/>
                </mxCell>
                <mxCell id="hboSqb5Xl3xaXRTqzZCY-63" value="&lt;u&gt;Attempts&lt;/u&gt;" style="text;html=1;strokeColor=none;fillColor=none;align=center;verticalAlign=middle;whiteSpace=wrap;rounded=0;" parent="1" vertex="1">
                    <mxGeometry x="85" y="520" width="60" height="30" as="geometry"/>
                </mxCell>
                <mxCell id="hboSqb5Xl3xaXRTqzZCY-64" value="is_correct" style="rounded=0;whiteSpace=wrap;html=1;" parent="1" vertex="1">
                    <mxGeometry x="280" y="545" width="100" height="30" as="geometry"/>
                </mxCell>
                <mxCell id="hboSqb5Xl3xaXRTqzZCY-65" value="time_taken" style="rounded=0;whiteSpace=wrap;html=1;" parent="1" vertex="1">
                    <mxGeometry x="380" y="545" width="100" height="30" as="geometry"/>
                </mxCell>
                <mxCell id="hboSqb5Xl3xaXRTqzZCY-66" value="&lt;u&gt;Participates&lt;/u&gt;" style="text;html=1;strokeColor=none;fillColor=none;align=center;verticalAlign=middle;whiteSpace=wrap;rounded=0;" parent="1" vertex="1">
                    <mxGeometry x="90" y="452" width="60" height="30" as="geometry"/>
                </mxCell>
                <mxCell id="hboSqb5Xl3xaXRTqzZCY-67" value="&lt;span&gt;rating&lt;/span&gt;" style="rounded=0;whiteSpace=wrap;html=1;fontStyle=0" parent="1" vertex="1">
                    <mxGeometry x="280" y="685" width="100" height="30" as="geometry"/>
                </mxCell>
                <mxCell id="hboSqb5Xl3xaXRTqzZCY-68" value="&lt;u&gt;datetime&lt;/u&gt;" style="rounded=0;whiteSpace=wrap;html=1;" parent="1" vertex="1">
                    <mxGeometry x="180" y="685" width="100" height="30" as="geometry"/>
                </mxCell>
                <mxCell id="hboSqb5Xl3xaXRTqzZCY-69" value="&lt;u&gt;Puzzle_History&lt;/u&gt;" style="text;html=1;strokeColor=none;fillColor=none;align=center;verticalAlign=middle;whiteSpace=wrap;rounded=0;" parent="1" vertex="1">
                    <mxGeometry x="94" y="660" width="60" height="30" as="geometry"/>
                </mxCell>
                <mxCell id="hboSqb5Xl3xaXRTqzZCY-70" style="edgeStyle=orthogonalEdgeStyle;html=1;exitX=0;exitY=0.5;exitDx=0;exitDy=0;endArrow=none;endFill=0;rounded=0;" parent="1" source="hboSqb5Xl3xaXRTqzZCY-71" edge="1">
                    <mxGeometry relative="1" as="geometry">
                        <mxPoint x="10" y="495" as="targetPoint"/>
                    </mxGeometry>
                </mxCell>
                <mxCell id="hboSqb5Xl3xaXRTqzZCY-71" value="&lt;u&gt;username&lt;/u&gt;" style="rounded=0;whiteSpace=wrap;html=1;" parent="1" vertex="1">
                    <mxGeometry x="80" y="685" width="100" height="30" as="geometry"/>
                </mxCell>
                <mxCell id="Y4_9WroHDBYsrbq4C0mT-4" value="&lt;span&gt;rating&lt;/span&gt;" style="rounded=0;whiteSpace=wrap;html=1;fontStyle=0" parent="1" vertex="1">
                    <mxGeometry x="280" y="745" width="100" height="30" as="geometry"/>
                </mxCell>
                <mxCell id="Y4_9WroHDBYsrbq4C0mT-5" value="&lt;u&gt;datetime&lt;/u&gt;" style="rounded=0;whiteSpace=wrap;html=1;" parent="1" vertex="1">
                    <mxGeometry x="180" y="745" width="100" height="30" as="geometry"/>
                </mxCell>
                <mxCell id="Y4_9WroHDBYsrbq4C0mT-6" value="&lt;u&gt;Rating_History&lt;/u&gt;" style="text;html=1;strokeColor=none;fillColor=none;align=center;verticalAlign=middle;whiteSpace=wrap;rounded=0;" parent="1" vertex="1">
                    <mxGeometry x="94" y="720" width="60" height="30" as="geometry"/>
                </mxCell>
                <mxCell id="Y4_9WroHDBYsrbq4C0mT-8" style="edgeStyle=none;html=1;exitX=0;exitY=0.5;exitDx=0;exitDy=0;endArrow=none;endFill=0;rounded=0;" parent="1" source="Y4_9WroHDBYsrbq4C0mT-7" edge="1">
                    <mxGeometry relative="1" as="geometry">
                        <mxPoint x="10" y="700" as="targetPoint"/>
                        <Array as="points">
                            <mxPoint x="10" y="760"/>
                        </Array>
                    </mxGeometry>
                </mxCell>
                <mxCell id="Y4_9WroHDBYsrbq4C0mT-7" value="&lt;u&gt;username&lt;/u&gt;" style="rounded=0;whiteSpace=wrap;html=1;" parent="1" vertex="1">
                    <mxGeometry x="80" y="745" width="100" height="30" as="geometry"/>
                </mxCell>
                <mxCell id="Y4_9WroHDBYsrbq4C0mT-10" style="edgeStyle=none;rounded=0;html=1;exitX=1;exitY=0.5;exitDx=0;exitDy=0;endArrow=none;endFill=0;startArrow=none;" parent="1" source="BvHEUai8qq8Ojn0ND3j1-1" edge="1">
                    <mxGeometry relative="1" as="geometry">
                        <mxPoint x="1110" y="280" as="targetPoint"/>
                    </mxGeometry>
                </mxCell>
                <mxCell id="Y4_9WroHDBYsrbq4C0mT-9" value="team_name" style="rounded=0;whiteSpace=wrap;html=1;" parent="1" vertex="1">
                    <mxGeometry x="380" y="265" width="100" height="30" as="geometry"/>
                </mxCell>
                <mxCell id="Y7RLvaf60knT6ANEfKr5-1" value="pgn" style="rounded=0;whiteSpace=wrap;html=1;" parent="1" vertex="1">
                    <mxGeometry x="180" y="328" width="100" height="30" as="geometry"/>
                </mxCell>
                <mxCell id="bIqJktw9BeBLZ81m1Fge-1" value="attempt_datetime" style="rounded=0;whiteSpace=wrap;html=1;" parent="1" vertex="1">
                    <mxGeometry x="480" y="545" width="100" height="30" as="geometry"/>
                </mxCell>
                <mxCell id="3WaMzPM9w9151GBXii0O-1" value="tournament_name" style="rounded=0;whiteSpace=wrap;html=1;fontStyle=0" parent="1" vertex="1">
                    <mxGeometry x="180" y="398" width="100" height="30" as="geometry"/>
                </mxCell>
                <mxCell id="USCfW0GK0jOgheHcdXdO-1" value="datetime" style="rounded=0;whiteSpace=wrap;html=1;" parent="1" vertex="1">
                    <mxGeometry x="480" y="328" width="100" height="30" as="geometry"/>
                </mxCell>
                <mxCell id="BvHEUai8qq8Ojn0ND3j1-2" value="" style="edgeStyle=none;rounded=0;html=1;exitX=1;exitY=0.5;exitDx=0;exitDy=0;endArrow=none;endFill=0;" parent="1" source="Y4_9WroHDBYsrbq4C0mT-9" target="BvHEUai8qq8Ojn0ND3j1-1" edge="1">
                    <mxGeometry relative="1" as="geometry">
                        <mxPoint x="1110" y="280" as="targetPoint"/>
                        <mxPoint x="480" y="280" as="sourcePoint"/>
                    </mxGeometry>
                </mxCell>
                <mxCell id="BvHEUai8qq8Ojn0ND3j1-1" value="message" style="rounded=0;whiteSpace=wrap;html=1;fillColor=#FFFF99;" parent="1" vertex="1">
                    <mxGeometry x="480" y="265" width="100" height="30" as="geometry"/>
                </mxCell>
                <mxCell id="BvHEUai8qq8Ojn0ND3j1-3" value="create_date" style="rounded=0;whiteSpace=wrap;html=1;fillColor=#FFFF99;" parent="1" vertex="1">
                    <mxGeometry x="680" y="165" width="100" height="30" as="geometry"/>
                </mxCell>
                <mxCell id="BvHEUai8qq8Ojn0ND3j1-4" value="avatar" style="rounded=0;whiteSpace=wrap;html=1;fillColor=#FFFF99;" parent="1" vertex="1">
                    <mxGeometry x="580" y="165" width="100" height="30" as="geometry"/>
                </mxCell>
                <mxCell id="nL1uD0eOsWKPRPsaWc5Z-1" value="icon" style="rounded=0;whiteSpace=wrap;html=1;fillColor=#FFFF99;" parent="1" vertex="1">
                    <mxGeometry x="280" y="85" width="100" height="30" as="geometry"/>
                </mxCell>
                <mxCell id="nL1uD0eOsWKPRPsaWc5Z-2" value="about_team" style="rounded=0;whiteSpace=wrap;html=1;fillColor=#FFFF99;" parent="1" vertex="1">
                    <mxGeometry x="380" y="85" width="100" height="30" as="geometry"/>
                </mxCell>
                <mxCell id="nL1uD0eOsWKPRPsaWc5Z-3" value="member_count" style="rounded=0;whiteSpace=wrap;html=1;fillColor=#FFFF99;" parent="1" vertex="1">
                    <mxGeometry x="480" y="85" width="100" height="30" as="geometry"/>
                </mxCell>
            </root>
        </mxGraphModel>
    </diagram>
</mxfile>